<?xml version="1.0" encoding="UTF-8"?>
<!DOCTYPE svg PUBLIC "-//W3C//DTD SVG 1.1//EN" "http://www.w3.org/Graphics/SVG/1.1/DTD/svg11.dtd">
<svg xmlns="http://www.w3.org/2000/svg" version="1.1" width="55px" height="55px" style="shape-rendering:geometricPrecision; text-rendering:geometricPrecision; image-rendering:optimizeQuality; fill-rule:evenodd; clip-rule:evenodd" xmlns:xlink="http://www.w3.org/1999/xlink">
<g><path style="opacity:1" fill="#fbf8fd" d="M -0.5,-0.5 C 6.83333,-0.5 14.1667,-0.5 21.5,-0.5C 16.9904,1.08809 12.657,3.25475 8.5,6C 4.42933,9.8823 1.42933,14.3823 -0.5,19.5C -0.5,12.8333 -0.5,6.16667 -0.5,-0.5 Z"/></g>
<g><path style="opacity:1" fill="#fcf9fd" d="M 32.5,-0.5 C 39.8333,-0.5 47.1667,-0.5 54.5,-0.5C 54.5,6.83333 54.5,14.1667 54.5,21.5C 50.842,10.5086 43.5086,3.17531 32.5,-0.5 Z"/></g>
<g><path style="opacity:1" fill="#a32afb" d="M 21.5,-0.5 C 25.1667,-0.5 28.8333,-0.5 32.5,-0.5C 43.5086,3.17531 50.842,10.5086 54.5,21.5C 54.5,24.8333 54.5,28.1667 54.5,31.5C 51.1541,43.5126 43.4874,51.1793 31.5,54.5C 27.8333,54.5 24.1667,54.5 20.5,54.5C 10.2678,51.2687 3.26776,44.602 -0.5,34.5C -0.5,29.5 -0.5,24.5 -0.5,19.5C 1.42933,14.3823 4.42933,9.8823 8.5,6C 12.657,3.25475 16.9904,1.08809 21.5,-0.5 Z"/></g>
<g><path style="opacity:1" fill="#f5eafb" d="M 19.5,3.5 C 42.9689,2.46365 52.8022,13.4637 49,36.5C 40.9374,50.2988 29.4374,54.1321 14.5,48C 0.331453,36.3181 -1.00188,23.3181 10.5,9C 13.5638,7.1412 16.5638,5.30787 19.5,3.5 Z"/></g>
<g><path style="opacity:1" fill="#9d16fd" d="M 21.5,6.5 C 39.0564,5.82616 47.5564,14.1595 47,31.5C 43.08,44.0702 34.58,49.2369 21.5,47C 9.26166,42.3649 4.42833,33.5316 7,20.5C 9.77397,13.5569 14.6073,8.89027 21.5,6.5 Z"/></g>
<g><path style="opacity:1" fill="#f8f0fc" d="M 25.5,9.5 C 26.5,9.5 27.5,9.5 28.5,9.5C 28.5,10.8333 28.5,12.1667 28.5,13.5C 32.3233,13.8183 34.1567,15.8183 34,19.5C 33.4387,20.0219 32.772,20.3552 32,20.5C 29.9075,17.5481 27.2408,16.8814 24,18.5C 23.3333,19.5 23.3333,20.5 24,21.5C 27.1493,22.9964 30.3159,24.4964 33.5,26C 38.2613,32.6655 36.7613,37.4988 29,40.5C 28.51,41.7932 28.3433,43.1266 28.5,44.5C 27.5,44.5 26.5,44.5 25.5,44.5C 25.762,43.0222 25.4287,41.6888 24.5,40.5C 20.3343,39.3401 18.001,36.6735 17.5,32.5C 18.9305,32.5792 20.2638,32.2458 21.5,31.5C 23.1702,35.4848 26.0035,36.4848 30,34.5C 30.7112,32.6332 30.2112,31.1332 28.5,30C 19.6038,28.4802 16.7704,23.6469 20,15.5C 21.4443,13.8446 23.2776,13.178 25.5,13.5C 25.5,12.1667 25.5,10.8333 25.5,9.5 Z"/></g>
<g><path style="opacity:1" fill="#fbf8fd" d="M 54.5,31.5 C 54.5,39.1667 54.5,46.8333 54.5,54.5C 46.8333,54.5 39.1667,54.5 31.5,54.5C 43.4874,51.1793 51.1541,43.5126 54.5,31.5 Z"/></g>
<g><path style="opacity:1" fill="#fcf9fd" d="M -0.5,34.5 C 3.26776,44.602 10.2678,51.2687 20.5,54.5C 13.5,54.5 6.5,54.5 -0.5,54.5C -0.5,47.8333 -0.5,41.1667 -0.5,34.5 Z"/></g>
</svg>
